<?xml version="1.0" encoding="iso-8859-1"?>
<!-- Generator: Adobe Illustrator 16.0.0, SVG Export Plug-In . SVG Version: 6.00 Build 0)  -->
<!DOCTYPE svg PUBLIC "-//W3C//DTD SVG 1.1//EN" "http://www.w3.org/Graphics/SVG/1.1/DTD/svg11.dtd">
<svg version="1.1" id="Capa_1" xmlns="http://www.w3.org/2000/svg" xmlns:xlink="http://www.w3.org/1999/xlink" x="0px" y="0px"
	 width="322.053px" height="322.053px" viewBox="0 0 322.053 322.053" style="enable-background:new 0 0 322.053 322.053;"
	 xml:space="preserve">
<g>
	<g>
		<g>
			<path d="M98.214,48.391c0.542,0.117,1.044,0.11,2.585-1.076c0.688-0.525,1.701-1.415,2.637-2.652l0.405-0.542
				c3.508-4.661,11.712-15.578,23.567-14.98c9.773,0.71,16.702,8.093,20.033,21.347c0.116,0.449,0.187,0.726,0.26,0.939
				c0.511,2.165,1.363,4.866,2.592,5.758c0.31,0.221,0.659,0.325,1.01,0.325c0.537,0,1.066-0.248,1.398-0.715
				c0.541-0.746,0.397-1.776-0.308-2.348c-0.344-0.445-0.98-2.284-1.364-3.936c-0.027-0.098-0.055-0.191-0.094-0.287
				c-0.03-0.108-0.094-0.358-0.15-0.575c-0.525-2.101-1.93-7.681-5.33-12.927c-4.397-6.777-10.39-10.484-17.819-11.024
				c-0.01,0-0.024,0-0.04,0c-13.687-0.7-22.675,11.252-26.51,16.354l-0.402,0.534c-1.052,1.388-2.288,2.255-2.719,2.505
				c-0.144,0.056-0.28,0.137-0.411,0.231c-0.539,0.407-0.802,1.1-0.659,1.759S97.555,48.247,98.214,48.391z"/>
			<path d="M141.52,45.792c-1.114-2.327-3.188-4.018-5.999-4.875c-4.132-1.261-9.125,1.026-13.712,6.276
				c-0.06,0.07-6.581,6.932-13.432,11.122c-0.053,0.032-5.066,3.039-10.302,4.464c-0.917,0.25-1.458,1.203-1.213,2.117
				c0.253,0.922,1.203,1.464,2.122,1.213c5.694-1.549,10.958-4.711,11.185-4.846c7.43-4.553,14.171-11.726,14.231-11.786
				c2.782-3.189,6.899-6.246,10.113-5.264c1.889,0.582,3.2,1.608,3.895,3.063c0.83,1.739,0.767,4.089-0.18,6.448
				c-1.054,2.638-3.477,5.604-6.992,8.687c0.421,0.511,0.803,1.059,1.126,1.668c0.238,0.465,0.396,0.95,0.589,1.431
				c3.704-3.155,6.988-6.764,8.48-10.5C142.736,51.755,142.764,48.395,141.52,45.792z"/>
			<path d="M113.643,42.128c-0.787,0.862-1.488,1.788-2.245,2.671c-0.993,1.16-2.076,2.247-3.207,3.267
				c-1.164,1.05-2.106,1.8-3.48,2.585c-1.451,0.838-2.936,1.682-4.447,2.414c-0.515,0.253-0.959,0.417-1.545,0.592
				c-0.9,0.27-1.461,1.203-1.203,2.124c0.239,0.891,1.22,1.477,2.116,1.206c1.764-0.529,3.366-1.438,4.959-2.344
				c1.343-0.768,2.681-1.455,3.915-2.394c2.411-1.833,4.484-3.977,6.393-6.317c0.773-0.948,1.6-1.848,2.458-2.717
				c0.474-0.472,0.96-0.931,1.455-1.377c0.26-0.231,0.525-0.458,0.792-0.683c0.133-0.113,0.27-0.224,0.407-0.335
				c0.038-0.029,0.304-0.239,0.375-0.299c1.198-0.92,2.478-1.733,3.826-2.428c1.273-0.655,2.547-1.11,4.096-1.434
				c0.515-0.108,0.628-0.115,1.009-0.158c0.939-0.094,1.729-0.711,1.729-1.723c0-0.869-0.792-1.826-1.729-1.725
				C123.088,33.698,117.751,37.598,113.643,42.128z"/>
			<path d="M127.044,59.342c2.505-2.315,4.889-4.878,6.938-7.755c0.555-0.778,0.375-1.853-0.4-2.411
				c-0.773-0.558-1.853-0.372-2.406,0.404c-2.342,3.285-5.128,6.146-8.058,8.665C124.472,58.456,125.807,58.806,127.044,59.342z"/>
			<path d="M148.049,64.598c-1.333-1.107-1.953-2.562-2.233-4.244c-0.361-2.193-3.683-1.257-3.327,0.919
				c0.354,2.134,1.294,3.799,2.601,5.14h6.086C150.07,65.923,148.977,65.37,148.049,64.598z"/>
		</g>
		<path d="M114.468,66.2H93.406v1.127h20.276C113.91,66.932,114.17,66.551,114.468,66.2z"/>
		<path d="M134.39,66.2c0.368,0.331,0.666,0.739,0.98,1.127h26.114V66.2H134.39z"/>
		<rect x="164.578" y="65.654" width="6.242" height="2.225"/>
		<rect x="83.271" y="65.654" width="6.246" height="2.225"/>
		<g>
			<path style="opacity:0.4;enable-background:new    ;" d="M111.295,75.388c-3.498,1.987-7.152,3.929-10.267,5.26
				c-0.876,0.371-1.283,1.391-0.912,2.267c0.281,0.652,0.922,1.044,1.588,1.044c0.224,0,0.458-0.044,0.676-0.14
				c2.615-1.114,5.587-2.642,8.53-4.264C110.98,78.153,111.117,76.769,111.295,75.388z"/>
			<path style="opacity:0.4;enable-background:new    ;" d="M113.251,67.327h-4.156c-4.755,2.447-8.613,3.867-10.061,4.36
				c-0.074,0.025-0.122,0.046-0.137,0.049c-0.893,0.34-1.341,1.334-1.004,2.225c0.262,0.691,0.92,1.116,1.615,1.116
				c0.198,0,0.395-0.033,0.588-0.103l0.063-0.024c1.696-0.582,6.591-2.397,12.422-5.594C112.789,68.678,113,68.001,113.251,67.327z"
				/>
			<path style="opacity:0.4;enable-background:new    ;" d="M147.12,85.226c-2.394-0.799-5.32-2.885-8.151-4.896
				c-0.719-0.515-1.401-0.986-2.091-1.465c-0.297,1.107-0.845,2.154-1.685,3.023c0.605,0.417,1.205,0.842,1.779,1.248
				c3.034,2.163,6.174,4.397,9.055,5.357c0.907,0.307,1.882-0.188,2.183-1.091C148.511,86.5,148.02,85.523,147.12,85.226z"/>
			<path style="opacity:0.4;enable-background:new    ;" d="M152.828,67.327h-6.511c1.205,0.919,2.601,1.662,4.093,2.29
				c0.869,0.365,1.839,0.267,2.361-0.625C153.046,68.53,153.069,67.854,152.828,67.327z"/>
			<path style="opacity:0.4;enable-background:new    ;" d="M148.802,75.64c-1.293-0.395-2.278-0.903-3.648-1.713
				c-2.512-1.485-4.805-3.638-5.916-6.38c-0.031-0.075-0.07-0.144-0.104-0.219h-3.148c-0.171,0.359-0.225,0.758-0.074,1.133
				c2.062,5.072,6.781,8.905,11.978,10.506C150.022,79.625,150.922,76.292,148.802,75.64z"/>
		</g>
	</g>
	<g>
		<polygon points="149.521,120.506 177.35,120.506 177.35,92.675 173.517,92.675 173.517,116.671 149.521,116.671 		"/>
		<polygon points="102.494,116.671 78.499,116.671 78.499,92.675 74.665,92.675 74.665,120.506 102.494,120.506 		"/>
		<polygon points="78.499,3.831 102.494,3.831 102.494,0 74.665,0 74.665,27.825 78.499,27.825 		"/>
		<polygon points="173.517,27.829 177.35,27.829 177.35,0 149.521,0 149.521,3.831 173.517,3.831 		"/>
	</g>
	<path d="M246.231,211.503c0.779-8.938-1.362-16.502-6.358-22.497c-7.375-8.812-18.699-11.561-23.531-12.354
		c-3.08-7.717-7.775-12.799-13.973-15.119c-2.43-0.906-5.064-1.372-7.844-1.372c-4.65,0-8.846,1.283-11.669,2.42
		c-3.728-6.757-8.696-10.956-14.787-12.488c-1.678-0.424-3.448-0.64-5.26-0.64c-5.805,0-11.116,2.186-14.726,4.148
		c-1.254-8.36-2.898-28.229-4.11-42.851l-0.007-0.165c-2.699-32.719-3.554-41.477-5.005-44.024
		c-1.843-6.343-9.767-15.636-17.666-15.074c-5.217,0.318-11.798,4.611-13.476,23.264c0,65.688-1.845,114.256-2.254,124.139
		c-5.831,2.649-11.158,8.665-11.747,9.35c-18.762,20.714-9.868,35.939-9.483,36.569c14.339,25.098,43.965,74.527,44.235,74.979
		l0.578,0.955l0.288-0.175v0.448h94.73l3.498,1.037l4.896-16.741C252.233,267.743,246.901,217.058,246.231,211.503z M90.27,241.386
		c-0.274-0.479-6.542-11.779,8.697-28.616c1.627-1.903,6.744-7.067,10.823-8.138l2.421-0.657l0.104-2.499
		c0.029-0.39,2.358-51.18,2.337-126.405c0.919-10.121,3.621-16.531,7.038-16.738l0.154-0.003c4.236,0,9.825,6.71,10.66,10.604
		l0.49,2.292l0.284,0.05c1.039,5.823,2.594,24.665,3.855,39.875c4.128,49.977,4.625,50.129,7.888,51.101l1.679,0.493l1.384-1.061
		c0.736-0.548,7.394-5.375,14.726-5.375c1.25,0,2.467,0.152,3.582,0.438c4.854,1.217,8.803,5.179,11.759,11.76l1.547,3.474
		l3.289-1.909c0.222-0.12,5.564-3.039,11.529-3.039c1.957,0,3.788,0.308,5.448,0.934c4.709,1.76,8.284,6.105,10.643,12.923
		l0.732,2.101l2.211,0.206c0.13,0.01,13.678,1.389,21.046,10.218c3.84,4.586,5.451,10.548,4.784,17.728l-0.023,0.499l0.037,0.216
		c0.257,2.187,6.095,53.995-13.154,90.896l-3.341,11.263H133.11C126.816,303.491,102.692,263.116,90.27,241.386z"/>
</g>
<g>
</g>
<g>
</g>
<g>
</g>
<g>
</g>
<g>
</g>
<g>
</g>
<g>
</g>
<g>
</g>
<g>
</g>
<g>
</g>
<g>
</g>
<g>
</g>
<g>
</g>
<g>
</g>
<g>
</g>
</svg>
